# xmcd
#
# Track frame offsets:
#	150
#	12624
#	23465
#	50326
#	67433
#	77575
#	99306
#	112645
#	136021
#	144055
#	169620
#	183013
#
# Disc length: 2551 seconds
#
# Revision: 0
# Processed by: cddbd v1.5.2PL0 Copyright (c) Steve Scherf et al.
# Submitted via: EasyCDDAExtractor 2010.4.0.0
#
DISCID=8609f50c
DTITLE=Leon Smith - The Smith Kid Rides Again
DYEAR=2005
DGENRE=
TTITLE0=Sixty Minute Man
TTITLE1=Questions on My Mind
TTITLE2=Only My Heart
TTITLE3=Big Boss Man
TTITLE4=Faded Love
TTITLE5=Georgia on My Mind
TTITLE6=Empty Chapel
TTITLE7=Workin' Man Blues
TTITLE8=Happy for Sam
TTITLE9=You Don't Know Me
TTITLE10=Time
TTITLE11=Frankly
EXTD=
EXTT0=
EXTT1=
EXTT2=
EXTT3=
EXTT4=
EXTT5=
EXTT6=
EXTT7=
EXTT8=
EXTT9=
EXTT10=
EXTT11=
PLAYORDER=
